<svg width="218" height="116" viewBox="0 0 218 116" fill="none" xmlns="http://www.w3.org/2000/svg">
<path fill-rule="evenodd" clip-rule="evenodd" d="M64.3677 41.6212L141.57 65.3182L122.095 81.3485L156.175 82.7424L53.935 114.803L193.038 115.5L165.913 95.9848C194.921 96.0514 208.077 92.4733 216.685 68.803L200.688 47.197C191.145 37.0465 183.751 33.6503 167.999 30.4697L141.57 8.86364C131.354 4.64141 124.816 3.11557 113.054 0.5H95.6657C101.036 7.89963 105.017 12.0222 113.749 19.3182C123.34 26.8871 129.401 30.8672 141.57 37.4394L64.3677 41.6212ZM171.477 61.8333L183.996 51.3788C191.914 57.7977 193.095 61.6672 183.996 69.5L171.477 61.8333Z" fill="white"/>
<path fill-rule="evenodd" clip-rule="evenodd" d="M80.3644 35.3485L50.4574 20.0152H95.6657L117.922 33.9545L80.3644 35.3485Z" fill="white"/>
<path fill-rule="evenodd" clip-rule="evenodd" d="M64.3677 41.6212L141.57 65.3182L122.095 81.3485L156.175 82.7424L53.935 114.803L193.038 115.5L165.913 95.9848C194.921 96.0514 208.077 92.4733 216.685 68.803L200.688 47.197C191.145 37.0465 183.751 33.6503 167.999 30.4697L141.57 8.86364C131.354 4.64141 124.816 3.11557 113.054 0.5H95.6657C101.036 7.89963 105.017 12.0222 113.749 19.3182C123.34 26.8871 129.401 30.8672 141.57 37.4394L64.3677 41.6212ZM171.477 61.8333L183.996 51.3788C191.914 57.7977 193.095 61.6672 183.996 69.5L171.477 61.8333Z" stroke="black"/>
<path fill-rule="evenodd" clip-rule="evenodd" d="M80.3644 35.3485L50.4574 20.0152H95.6657L117.922 33.9545L80.3644 35.3485Z" stroke="black"/>
<path d="M116.685 69.5L54.1849 42.5L0.184937 64L82.1849 71.5L38.1849 91H76.6849L54.1849 113.5L116.685 69.5Z" fill="#6851D0" stroke="#6C54D5"/>
</svg>
